M48
INCH,TZ
T01C.013
T02C.03937
T03C.057087
;LEADER: 12 
;HEADER: 
;CODE  : ASCII 
;FILE  : trackitboard-10milnew-1-2.drl for board #Taaaaag19416.tmp ... layers TOP and BOTTOM
;T01 Holesize 1. = 13.000000 Tolerance = +0.000000/-0.000000 PLATED MILS Quantity = 22
;T02 Holesize 2. = 39.370000 Tolerance = +0.000000/-0.000000 PLATED MILS Quantity = 7
;T03 Holesize 3. = 57.087000 Tolerance = +0.000000/-0.000000 PLATED MILS Quantity = 2
%
G90
T01
X-5000Y20000
X1968Y31102
X25180Y39370
X25628Y50394
X19685Y47638
X9861Y56961
X1968Y54421
X-5000Y72500
X11811Y67873
X22388Y65923
X25322Y70116
X29528Y72158
X37500Y60000
X42500Y60000
X66341Y77990
X76213Y76040
X90000Y97500
X76213Y88567
X61709Y98460
X46686Y95184
X83659Y112205
X105000Y102500
T02
X120000Y97500
X110000Y97500
X100000Y97500
X59528Y110236
X49528Y110236
X39528Y110236
X29528Y110236
T03
X104173Y85000
X125827Y85000
M30
