G04 ================== begin FILE IDENTIFICATION RECORD ==================*
G04 Layout Name:  trackitboard-10milnew.brd*
G04 Film Name:    MASK_BOT_TeamX*
G04 File Format:  Gerber RS274X*
G04 File Origin:  Cadence Allegro 16.6-P004*
G04 Origin Date:  Sun Jun 14 00:54:36 2020*
G04 *
G04 Layer:  VIA CLASS/SOLDERMASK_BOTTOM*
G04 Layer:  PIN/SOLDERMASK_BOTTOM*
G04 Layer:  DRC ERROR CLASS/SOLDERMASK_BOTTOM*
G04 *
G04 Offset:    (0.000 0.000)*
G04 Mirror:    No*
G04 Mode:      Positive*
G04 Rotation:  0*
G04 FullContactRelief:  No*
G04 UndefLineWidth:     5.000*
G04 ================== end FILE IDENTIFICATION RECORD ====================*
%FSLAX25Y25*MOIN*%
%IR0*IPPOS*OFA0.00000B0.00000*MIA0B0*SFA1.00000B1.00000*%
%ADD11C,.044*%
%ADD16C,.05315*%
%ADD15R,.051181X.023228*%
%ADD17R,.05315X.05315*%
%ADD22C,.08563*%
%ADD20R,.08563X.08563*%
%ADD19R,.03937X.055118*%
%ADD14R,.023622X.019685*%
%ADD12R,.015748X.055118*%
%ADD10R,.055118X.015748*%
%ADD18R,.055906X.03937*%
%ADD21R,.03937X.055906*%
%ADD13R,.03937X.062992*%
%LPD*%
G75*
G54D10*
X-4331Y39370D03*
Y36614D03*
Y33858D03*
Y31102D03*
Y14567D03*
Y11811D03*
Y47638D03*
Y44882D03*
Y42126D03*
Y55906D03*
Y53150D03*
Y50394D03*
X31890Y11811D03*
Y14567D03*
Y17323D03*
Y20079D03*
Y22835D03*
Y25591D03*
Y28346D03*
Y31102D03*
Y33858D03*
Y36614D03*
Y39370D03*
Y42126D03*
Y44882D03*
Y47638D03*
Y50394D03*
Y53150D03*
Y55906D03*
G54D20*
X104173Y85000D03*
G54D11*
X889Y31189D03*
X-5000Y20000D03*
X1887Y53414D03*
X17678Y68750D03*
X11811Y67873D03*
X9540Y54147D03*
X-5000Y72500D03*
X25180Y39370D03*
X37500Y60000D03*
X25289Y68276D03*
X29528Y72158D03*
X19685Y47638D03*
X25628Y50394D03*
X42500Y60000D03*
X44750Y96780D03*
X61318Y98736D03*
X66590Y76235D03*
X76213Y76040D03*
Y88567D03*
X90000Y97500D03*
X83659Y112205D03*
X105000Y102500D03*
G54D21*
X91319Y110000D03*
X98681D03*
X108819D03*
X116181D03*
G54D12*
X16535Y61417D03*
X13780D03*
X11024D03*
X8268D03*
X5512D03*
X2756D03*
X0D03*
X-2756D03*
X30315D03*
X27559D03*
X24803D03*
X22047D03*
X19291D03*
G54D13*
X1968Y74016D03*
X11811Y83465D03*
X21654Y74016D03*
G54D22*
X125827Y85000D03*
G54D14*
X43504Y74803D03*
X35236D03*
G54D15*
X35492Y88583D03*
X43248Y84842D03*
Y92323D03*
G54D16*
X39528Y110236D03*
X59528D03*
X49528D03*
X120000Y97500D03*
X110000D03*
G54D17*
X29528Y110236D03*
X100000Y97500D03*
G54D18*
X57087Y92264D03*
Y84902D03*
X70866Y92264D03*
Y84902D03*
G54D19*
X74803Y112598D03*
X71063Y103937D03*
X78543D03*
M02*
