M48
INCH,TZ
T01C.01
T02C.013
T03C.03
T04C.045
T05C.057087
;LEADER: 12 
;HEADER: 
;CODE  : ASCII 
;FILE  : trackitboard-10milnew-1-2.drl for board #Taaaaam06076.tmp ... layers TOP and BOTTOM
;T01 Holesize 1. = 10.000000 Tolerance = +0.000000/-0.000000 PLATED MILS Quantity = 1
;T02 Holesize 2. = 13.000000 Tolerance = +0.000000/-0.000000 PLATED MILS Quantity = 21
;T03 Holesize 3. = 30.000000 Tolerance = +0.000000/-0.000000 PLATED MILS Quantity = 7
;T04 Holesize 4. = 45.000000 Tolerance = +0.000000/-0.000000 PLATED MILS Quantity = 1
;T05 Holesize 5. = 57.087000 Tolerance = +0.000000/-0.000000 PLATED MILS Quantity = 1
%
G90
T01
X25289Y68276
T02
X-5000Y20000
X889Y31189
X1887Y53414
X9540Y54147
X19685Y47638
X25180Y39370
X25628Y50394
X-5000Y72500
X11811Y67873
X17678Y68750
X29528Y72158
X37500Y60000
X42500Y60000
X44750Y96780
X61318Y98736
X66590Y76235
X76213Y76040
X76213Y88567
X83659Y112205
X90000Y97500
X105000Y102500
T03
X120000Y97500
X110000Y97500
X100000Y97500
X59528Y110236
X49528Y110236
X39528Y110236
X29528Y110236
T04
X125827Y85000
T05
X104173Y85000
M30
