G04 ================== begin FILE IDENTIFICATION RECORD ==================*
G04 Layout Name:  trackitboard-10milnew.brd*
G04 Film Name:    BOTTOM_TeamX*
G04 File Format:  Gerber RS274X*
G04 File Origin:  Cadence Allegro 16.6-P004*
G04 Origin Date:  Sun Jun 14 00:38:58 2020*
G04 *
G04 Layer:  ETCH/BOTTOM*
G04 Layer:  PIN/BOTTOM*
G04 Layer:  VIA CLASS/BOTTOM*
G04 *
G04 Offset:    (0.000 0.000)*
G04 Mirror:    Yes*
G04 Mode:      Positive*
G04 Rotation:  0*
G04 FullContactRelief:  No*
G04 UndefLineWidth:     5.000*
G04 ================== end FILE IDENTIFICATION RECORD ====================*
%FSLAX25Y25*MOIN*%
%IR0*IPPOS*OFA0.00000B0.00000*MIA1B0*SFA1.00000B1.00000*%
%ADD11C,.024*%
%ADD16C,.05315*%
%ADD15R,.051181X.023228*%
%ADD17R,.05315X.05315*%
%ADD22C,.08563*%
%ADD20R,.08563X.08563*%
%ADD19R,.03937X.055118*%
%ADD14R,.023622X.019685*%
%ADD12R,.015748X.055118*%
%ADD10R,.055118X.015748*%
%ADD18R,.055906X.03937*%
%ADD21R,.03937X.055906*%
%ADD13R,.03937X.062992*%
%ADD23C,.005*%
%ADD24C,.01*%
%ADD25R,.049374X.072996*%
%ADD29C,.063154*%
%ADD26R,.061186X.033232*%
%ADD30C,.095634*%
%ADD27R,.06591X.049374*%
%ADD28R,.095634X.095634*%
G75*
%LPD*%
G75*
G36*
G01X-8567Y-11004D02*
Y88240D01*
X-6998Y89809D01*
X12111D01*
X21589Y99287D01*
Y119484D01*
X21977Y119872D01*
X131665D01*
X137723Y113814D01*
Y79011D01*
X134616Y75904D01*
X82336D01*
X77714Y71282D01*
X60410D01*
X38796Y49668D01*
Y29936D01*
X35829Y26969D01*
G02X35146Y27252I-283J283D01*
G01Y28573D01*
X38250Y31677D01*
Y52189D01*
X43250Y57189D01*
Y58474D01*
G03X43802Y61093I-750J1526D01*
G02X44109Y61750I306J257D01*
G01X50311D01*
X57837Y69276D01*
Y82433D01*
X60382D01*
Y87370D01*
X53791D01*
Y82433D01*
X56336D01*
Y69897D01*
X49689Y63250D01*
X35691D01*
X32285Y59844D01*
G02X31602Y60127I-283J283D01*
G01Y64674D01*
X-4044D01*
Y58161D01*
X-1000D01*
Y57193D01*
X-7587D01*
Y29815D01*
X-1075D01*
Y30102D01*
X-418D01*
G03X-545Y32103I1307J1087D01*
G01X-1075D01*
Y35864D01*
X26941D01*
X27951Y36874D01*
G02X28634Y36591I283J-283D01*
G01Y11024D01*
X20276D01*
Y15354D01*
X12401D01*
Y11024D01*
X-1075D01*
Y15855D01*
X-7587D01*
Y10524D01*
X-7087D01*
Y-7874D01*
X34646D01*
Y10524D01*
X35534D01*
Y-8710D01*
X35651Y-8827D01*
X35185Y-9293D01*
X-5599D01*
X-7310Y-11004D01*
X-8567D01*
G37*
G36*
G01X-1075Y37364D02*
Y38620D01*
X23655D01*
G03X24084Y38070I1526J750D01*
G02X23827Y37364I-258J-306D01*
G01X-1075D01*
G37*
G36*
G01Y40120D02*
Y55567D01*
G02X-733Y55708I200J0D01*
G01X-669Y55644D01*
Y54555D01*
X205Y53681D01*
X196Y53587D01*
G03X1714Y55105I1691J-173D01*
G01X1620Y55096D01*
X1332Y55384D01*
Y56472D01*
X1000Y56804D01*
Y58161D01*
X10273D01*
Y55941D01*
X10092Y55759D01*
X9980Y55789D01*
G03X11182Y54587I-440J-1642D01*
G01X11152Y54699D01*
X11774Y55320D01*
Y58161D01*
X15870D01*
G02X16152Y57478I0J-400D01*
G01X15985Y57311D01*
Y42509D01*
X16924Y41570D01*
X26320D01*
X26750Y41140D01*
Y40487D01*
X26465D01*
X26406Y40549D01*
G03X23655Y40120I-1225J-1179D01*
G01X-1075D01*
G37*
G36*
G01X32722Y57193D02*
G02X32439Y57876I0J400D01*
G01X35137Y60574D01*
G02X35816Y60236I283J-283D01*
G03X35858Y59560I1684J-236D01*
G01X35888Y59449D01*
X35370Y58931D01*
Y57193D01*
X32722D01*
G37*
G36*
G01X37554Y53614D02*
G02X36871Y53897I-283J283D01*
G01Y57912D01*
G02X37314Y58310I400J0D01*
G03X38802Y61093I186J1690D01*
G02X39109Y61750I306J257D01*
G01X40891D01*
G02X41198Y61093I0J-400D01*
G03X41750Y58474I1303J-1093D01*
G01Y57811D01*
X37554Y53614D01*
G37*
G36*
G01X27951Y42061D02*
X26941Y43070D01*
X17546D01*
X17485Y43131D01*
Y56689D01*
X17546Y56750D01*
X28634D01*
Y51144D01*
X27153D01*
G03X24532Y49094I-1526J-750D01*
G02X24274Y48388I-258J-306D01*
G01X21211D01*
G03Y46888I-1526J-750D01*
G01X28634D01*
Y42343D01*
G02X27951Y42061I-400J0D01*
G37*
%LPC*%
G75*
G36*
G01X12561Y69399D02*
G02X11061I-750J-1526D01*
G01Y79815D01*
X9342D01*
Y87114D01*
X14280D01*
Y79815D01*
X12561D01*
Y69399D01*
G37*
G36*
G01X75463Y87042D02*
G02X76964I750J1526D01*
G01Y77566D01*
G02X75463I-750J-1526D01*
G01Y87042D01*
G37*
G36*
G01X96842Y100658D02*
X103158D01*
Y99276D01*
G03X103840Y98994I400J0D01*
G01X104250Y99403D01*
Y100974D01*
G02X105750I750J1526D01*
G01Y98781D01*
X103719Y96750D01*
X103158D01*
Y94342D01*
X96842D01*
Y100658D01*
G37*
G36*
G01X26980Y68449D02*
G02X23939Y69309I-1691J-173D01*
G01Y70366D01*
X19185D01*
Y77666D01*
X24122D01*
Y75016D01*
X24787D01*
X26322Y73480D01*
Y71238D01*
X26221Y71137D01*
G03X26363Y70795I141J-141D01*
G01X26750D01*
X27846Y71891D01*
X27836Y71986D01*
G02X28527Y73533I1691J173D01*
G01Y107079D01*
X26370D01*
Y113394D01*
X32685D01*
Y107079D01*
X30528D01*
Y73533D01*
G02X30902Y73158I-1000J-1375D01*
G01X33555D01*
Y76288D01*
X36918D01*
Y76097D01*
G03X37259Y75955I200J0D01*
G01X38051Y76747D01*
Y86921D01*
X32433D01*
Y90244D01*
X38551D01*
Y89877D01*
G03X38893Y89735I200J0D01*
G01X39250Y90092D01*
Y90479D01*
X39189Y90540D01*
Y94106D01*
X39250Y94167D01*
Y97811D01*
X42189Y100750D01*
X58181D01*
X65624Y108193D01*
X70752D01*
X71334Y108775D01*
Y115976D01*
X73609Y118250D01*
X130311D01*
X133250Y115311D01*
Y99689D01*
X126903Y93342D01*
X113097D01*
X111641Y94798D01*
X111510Y94727D01*
G02X112773Y95990I-1510J2773D01*
G01X112702Y95859D01*
X113718Y94843D01*
X117250D01*
G03X117559Y95496I0J400D01*
G02X117227Y99010I2441J2003D01*
G01X117298Y99141D01*
X115431Y101008D01*
Y106704D01*
X113712D01*
Y113296D01*
X118650D01*
Y106704D01*
X116931D01*
Y101630D01*
X118362Y100199D01*
G02X122441Y95496I1638J-2699D01*
G03X122750Y94843I309J-254D01*
G01X126282D01*
X131750Y100311D01*
Y114689D01*
X129689Y116750D01*
X74230D01*
X74018Y116537D01*
G03X74300Y115855I283J-283D01*
G01X77272D01*
Y109342D01*
X75553D01*
Y102202D01*
X75733Y102023D01*
G03X76075Y102164I141J141D01*
G01Y107193D01*
X77793D01*
Y113354D01*
X80189Y115750D01*
X97811D01*
X99431Y114130D01*
Y113296D01*
X101150D01*
Y110750D01*
X106350D01*
Y113296D01*
X111288D01*
Y106704D01*
X106350D01*
Y109250D01*
X101150D01*
Y106704D01*
X96212D01*
Y113296D01*
X97178D01*
G03X97461Y113978I0J400D01*
G01X97189Y114250D01*
X84964D01*
G03X84716Y113536I0J-400D01*
G02X84409Y110679I-1057J-1332D01*
G01Y102689D01*
X81863Y100143D01*
G03X82146Y99460I283J-283D01*
G01X87504D01*
X88247Y98717D01*
G03X88810Y98714I283J283D01*
G02X89000Y98875I1190J-1214D01*
G01Y99865D01*
X90319Y101184D01*
Y106704D01*
X88850D01*
Y113296D01*
X93788D01*
Y106704D01*
X92319D01*
Y100355D01*
X91217Y99253D01*
G03X91214Y98690I283J-283D01*
G02X88625Y96500I-1214J-1190D01*
G01X87635D01*
X86675Y97460D01*
X63380D01*
X63104Y97736D01*
X62693D01*
G02Y99736I-1375J1000D01*
G01X63932D01*
X64208Y99460D01*
X75208D01*
G03X75491Y100143I0J400D01*
G01X74053Y101581D01*
Y109342D01*
X72835D01*
Y108154D01*
X72557Y107876D01*
G03X72840Y107193I283J-283D01*
G01X73532D01*
Y100681D01*
X68594D01*
Y106693D01*
X66246D01*
X58803Y99250D01*
X42811D01*
X40750Y97189D01*
Y93984D01*
X45936D01*
Y94534D01*
X45302Y95168D01*
X45190Y95138D01*
G02X46392Y96340I-440J1642D01*
G01X46362Y96228D01*
X47436Y95155D01*
Y95125D01*
G03X48119Y94842I400J0D01*
G01X49027Y95750D01*
X55000D01*
G02X55545Y95516I0J-750D01*
G01X56328Y94733D01*
X60382D01*
Y93014D01*
X67571D01*
Y94733D01*
X74162D01*
Y89795D01*
X67571D01*
Y91514D01*
X60382D01*
Y89795D01*
X53791D01*
Y94250D01*
X49648D01*
X46971Y91573D01*
X46307D01*
Y90661D01*
X40750D01*
Y89471D01*
X39551Y88272D01*
Y76126D01*
X37478Y74053D01*
X36918D01*
Y73158D01*
X40248D01*
X41823Y74733D01*
Y76288D01*
X45185D01*
Y73319D01*
X43237D01*
X41076Y71158D01*
X30902D01*
G02X29355Y70467I-1375J1000D01*
G01X29260Y70476D01*
X27579Y68795D01*
X27222D01*
X26971Y68543D01*
X26980Y68449D01*
G37*
G54D25*
X1968Y74016D03*
G54D29*
X39528Y110236D03*
X49528D03*
X59528D03*
G54D26*
X43248Y84842D03*
G54D30*
X125827Y85000D03*
G54D27*
X70866Y84902D03*
G54D28*
X104173Y85000D03*
%LPD*%
G75*
G36*
G01X81695Y102097D02*
G02X81012Y102380I-283J283D01*
G01Y107193D01*
X79294D01*
Y112733D01*
X80811Y114250D01*
X82353D01*
G02X82602Y113536I0J-400D01*
G03X82908Y110679I1057J-1332D01*
G01Y103311D01*
X81695Y102097D01*
G37*
G54D10*
X-4331Y39370D03*
Y36614D03*
Y33858D03*
Y31102D03*
Y14567D03*
Y11811D03*
Y47638D03*
Y44882D03*
Y42126D03*
Y55906D03*
Y53150D03*
Y50394D03*
X31890Y11811D03*
Y14567D03*
Y17323D03*
Y20079D03*
Y22835D03*
Y25591D03*
Y28346D03*
Y31102D03*
Y33858D03*
Y36614D03*
Y39370D03*
Y42126D03*
Y44882D03*
Y47638D03*
Y50394D03*
Y53150D03*
Y55906D03*
G54D20*
X104173Y85000D03*
G54D11*
X889Y31189D03*
X-5000Y20000D03*
X1887Y53414D03*
X17678Y68750D03*
X11811Y67873D03*
X9540Y54147D03*
X-5000Y72500D03*
X25180Y39370D03*
X37500Y60000D03*
X25289Y68276D03*
X29528Y72158D03*
X19685Y47638D03*
X25628Y50394D03*
X42500Y60000D03*
X44750Y96780D03*
X61318Y98736D03*
X66590Y76235D03*
X76213Y76040D03*
Y88567D03*
X90000Y97500D03*
X83659Y112205D03*
X105000Y102500D03*
G54D21*
X91319Y110000D03*
X98681D03*
X108819D03*
X116181D03*
G54D12*
X16535Y61417D03*
X13780D03*
X11024D03*
X8268D03*
X5512D03*
X2756D03*
X0D03*
X-2756D03*
X30315D03*
X27559D03*
X24803D03*
X22047D03*
X19291D03*
G54D13*
X1968Y74016D03*
X11811Y83465D03*
X21654Y74016D03*
G54D22*
X125827Y85000D03*
G54D23*
G01X57087Y84902D02*
Y69587D01*
X50000Y62500D01*
X36002D01*
X31002Y57500D01*
X17235D01*
X16735Y57000D01*
Y42820D01*
X17235Y42320D01*
X26630D01*
X27500Y41450D01*
Y37484D01*
X26630Y36614D01*
X-4331D01*
G01X-7787Y14567D02*
X-4331D01*
G01D02*
X-875D01*
G01X-7787Y11811D02*
X-4331D01*
G01D02*
X-875D01*
G01X-4331Y39370D02*
X25180D01*
G01X-2756Y61417D02*
Y64874D01*
G01X-4244Y61417D02*
X-2756D01*
G01X11811Y83465D02*
Y67873D01*
G01X9540Y54147D02*
X11024Y55631D01*
Y61417D01*
G01X1968Y74016D02*
Y77866D01*
G01X-700Y74016D02*
X1968D01*
G01D02*
X4637D01*
G01X37500Y60000D02*
X36120Y58621D01*
Y33365D01*
X33858Y31102D01*
X31890D01*
G01X42500Y60000D02*
Y57500D01*
X37500Y52500D01*
Y31988D01*
X33858Y28346D01*
X31890D01*
G01X30315Y61417D02*
Y64874D01*
G01Y61417D02*
X31802D01*
G01X31890Y47638D02*
X19685D01*
G01X31890Y50394D02*
X25628D01*
G01X38801Y88583D02*
X40000Y89782D01*
Y90789D01*
X39939Y90850D01*
Y93795D01*
X40000Y93856D01*
Y97500D01*
X42500Y100000D01*
X58492D01*
X65935Y107443D01*
X71063D01*
G01X35492Y88583D02*
X38801D01*
G01D02*
Y76437D01*
X37168Y74803D01*
X35236D01*
G01X43248Y82981D02*
Y84842D01*
G01D02*
Y86704D01*
G01X39989Y84842D02*
X43248D01*
G01Y92323D02*
X46661Y92323D01*
X46686Y92348D01*
G01D02*
Y94844D01*
X44750Y96780D01*
G01X70866Y82233D02*
Y84902D01*
G01D02*
Y87570D01*
G01X67371Y84902D02*
X70866D01*
G01D02*
X74362D01*
G01X70866Y92264D02*
X57736D01*
X57087Y92913D01*
G01D02*
Y92264D01*
G01X46686Y92348D02*
X49338Y95000D01*
X55000D01*
X57087Y92913D01*
G01X71063Y107443D02*
X72085Y108465D01*
Y115665D01*
X73919Y117500D01*
X130000D01*
X132500Y115000D01*
Y100000D01*
X126592Y94092D01*
X113408D01*
X110000Y97500D01*
G01X71063Y107443D02*
Y103937D01*
G01X83659Y112205D02*
Y103000D01*
X80659Y100000D01*
X76695D01*
X74803Y101892D01*
Y112598D01*
G01X59528Y106879D02*
Y110236D01*
G01D02*
Y113594D01*
G01X56170Y110236D02*
X59528D01*
G01D02*
X62885D01*
G01X105000Y102500D02*
Y99092D01*
X103408Y97500D01*
X100000D01*
G01X76213Y88567D02*
Y76040D01*
G01X108819Y110000D02*
X98681D01*
G01D02*
Y113819D01*
X97500Y115000D01*
X80500D01*
X78543Y113043D01*
Y103937D01*
G01X116181Y110000D02*
Y101319D01*
X120000Y97500D01*
G01X125827Y80018D02*
Y85000D01*
G01D02*
Y89982D01*
G01X120845Y85000D02*
X125827D01*
G01D02*
X130809D01*
G54D14*
X43504Y74803D03*
X35236D03*
G54D24*
G01X-4331Y31102D02*
X802D01*
X889Y31189D01*
G01X-4331Y14567D02*
X-825D01*
G01X-4331Y14567D02*
G01D02*
Y16105D01*
G01X-825Y14567D02*
Y12311D01*
G01X-4331Y14567D02*
X-6299D01*
X-7500Y15768D01*
Y29314D01*
G01X-825Y14567D02*
X2108Y17500D01*
X22445D01*
X28134Y11811D01*
G01X-4331Y16105D02*
X-5000Y16774D01*
Y20000D01*
G01X-825Y12311D02*
X-1325Y11811D01*
X-4331D01*
G01X-7500Y29314D02*
X-8087Y29901D01*
Y57107D01*
X-7500Y57694D01*
Y64087D01*
X-6663Y64923D01*
X-2756D01*
G01X1887Y53414D02*
X331Y54970D01*
Y56058D01*
X0Y56389D01*
Y61417D01*
G01X-2500Y64667D02*
Y61673D01*
X-2756Y61417D01*
G01X6500Y65173D02*
Y64378D01*
X5512Y63390D01*
Y61417D01*
G01X500Y65173D02*
X6500D01*
G01X1968Y74016D02*
Y69468D01*
G01X500Y65173D02*
X-1994D01*
G01X1968Y69468D02*
X500Y68000D01*
Y65173D01*
G01X-1994D02*
X-2500Y64667D01*
G01X-2756Y64923D02*
X-2500Y64667D01*
G01X17678Y66035D02*
X13084D01*
X12722Y65673D01*
X10900D01*
X10650Y65923D01*
X6628D01*
X6500Y65795D01*
Y65173D01*
G01X1968Y74016D02*
G01Y74016D02*
X-984D01*
G01D02*
X-2500Y72500D01*
X-5000D01*
G01X28134Y11811D02*
X31890D01*
G01X21654Y74016D02*
X24372Y74016D01*
X25322Y73066D01*
Y71652D01*
X24939Y71269D01*
Y69854D01*
X25289Y69504D01*
Y68276D01*
G01D02*
X26808Y69795D01*
X27164D01*
X29528Y72158D01*
G01X30315Y61417D02*
X30000Y61732D01*
Y65608D01*
G01X19512Y66035D02*
X17688D01*
G01X17678D02*
X17688D01*
G01X17678Y68750D02*
Y66035D01*
G01X22180Y65923D02*
X30315D01*
G01X22180D02*
X19512D01*
G01D02*
Y66035D01*
G01X30315Y65923D02*
X38423D01*
X46557Y74057D01*
Y84842D01*
G01X30000Y65608D02*
X30315Y65923D01*
G01X29528Y72158D02*
Y110236D01*
G01Y72158D02*
X40662D01*
X43307Y74803D01*
X43504D01*
G01X46557Y84842D02*
X43248D01*
G01X65462Y87500D02*
X60666D01*
X60296Y87870D01*
X53877D01*
X53507Y87500D01*
X49214D01*
X46557Y84842D01*
G01X61318Y98736D02*
X63518D01*
X63794Y98460D01*
X87089D01*
X88050Y97500D01*
X90000D01*
G01X66590Y76235D02*
X65034Y77791D01*
Y79297D01*
X64962Y79370D01*
Y87000D01*
X65462Y87500D01*
G01X68268D02*
X70866Y84902D01*
G01X65462Y87500D02*
X68268D01*
G01X91319Y110000D02*
Y100769D01*
X90000Y99450D01*
Y97500D01*
G54D15*
X35492Y88583D03*
X43248Y84842D03*
Y92323D03*
G54D16*
X39528Y110236D03*
X59528D03*
X49528D03*
X120000Y97500D03*
X110000D03*
G54D17*
X29528Y110236D03*
X100000Y97500D03*
G54D18*
X57087Y92264D03*
Y84902D03*
X70866Y92264D03*
Y84902D03*
G54D19*
X74803Y112598D03*
X71063Y103937D03*
X78543D03*
M02*
