G04 ================== begin FILE IDENTIFICATION RECORD ==================*
G04 Layout Name:  trackitboard-10milnew.brd*
G04 Film Name:    MASK_TOP_TeamX*
G04 File Format:  Gerber RS274X*
G04 File Origin:  Cadence Allegro 16.6-P004*
G04 Origin Date:  Sun Jun 14 00:45:45 2020*
G04 *
G04 Layer:  VIA CLASS/SOLDERMASK_TOP*
G04 Layer:  PIN/SOLDERMASK_TOP*
G04 Layer:  DRC ERROR CLASS/SOLDERMASK_TOP*
G04 *
G04 Offset:    (0.000 0.000)*
G04 Mirror:    No*
G04 Mode:      Positive*
G04 Rotation:  0*
G04 FullContactRelief:  No*
G04 UndefLineWidth:     5.000*
G04 ================== end FILE IDENTIFICATION RECORD ====================*
%FSLAX25Y25*MOIN*%
%IR0*IPPOS*OFA0.00000B0.00000*MIA0B0*SFA1.00000B1.00000*%
%AMMACRO14*
21,1,.066929,.03937,0.0,0.0,135.*%
%ADD14MACRO14*%
%ADD11C,.044*%
%ADD15C,.05315*%
%ADD19R,.011024X.031496*%
%ADD16R,.05315X.05315*%
%ADD22C,.08563*%
%ADD18R,.07874X.037402*%
%ADD21R,.08563X.08563*%
%ADD20R,.03937X.045276*%
%ADD12C,.066929*%
%ADD17R,.045276X.03937*%
%ADD10R,.055906X.03937*%
%ADD13R,.03937X.055906*%
%LPD*%
G75*
G54D10*
X2500Y26181D03*
Y18819D03*
X5906Y35689D03*
X12550Y18809D03*
Y26171D03*
X5906Y43051D03*
X19685Y35689D03*
X22500Y18819D03*
Y26181D03*
X19685Y43051D03*
X51181Y98169D03*
Y90807D03*
X87346Y88766D03*
Y81404D03*
G54D20*
X80580Y97654D03*
Y106906D03*
G54D11*
X889Y31189D03*
X-5000Y20000D03*
X1887Y53414D03*
X17678Y68750D03*
X11811Y67873D03*
X9540Y54147D03*
X-5000Y72500D03*
X25180Y39370D03*
X37500Y60000D03*
X25289Y68276D03*
X29528Y72158D03*
X19685Y47638D03*
X25628Y50394D03*
X42500Y60000D03*
X44750Y96780D03*
X61318Y98736D03*
X66590Y76235D03*
X76213Y76040D03*
Y88567D03*
X90000Y97500D03*
X83659Y112205D03*
X105000Y102500D03*
G54D12*
X1780Y60849D03*
X19569Y61237D03*
X31610Y47255D03*
X53150Y70866D03*
G54D21*
X104173Y85000D03*
G54D13*
X-1713Y78740D03*
X5650D03*
G54D22*
X125827Y85000D03*
G54D14*
X15469Y84189D03*
X33008Y66650D03*
X26048Y94767D03*
X43586Y77229D03*
G54D15*
X39528Y110236D03*
X59528D03*
X49528D03*
X120000Y97500D03*
X110000D03*
G54D16*
X29528Y110236D03*
X100000Y97500D03*
G54D17*
X71555Y80709D03*
X62303D03*
G54D18*
X68898Y94488D03*
G54D19*
X66929Y99410D03*
X68898D03*
X70866D03*
X72835D03*
Y89567D03*
X70866D03*
X68898D03*
X66929D03*
X64961Y99410D03*
Y89567D03*
M02*
