G04 ================== begin FILE IDENTIFICATION RECORD ==================*
G04 Layout Name:  trackitboard-10milnew.brd*
G04 Film Name:    SILK_TOP_TeamX*
G04 File Format:  Gerber RS274X*
G04 File Origin:  Cadence Allegro 16.6-P004*
G04 Origin Date:  Sun Jun 14 00:38:58 2020*
G04 *
G04 Layer:  PACKAGE GEOMETRY/SILKSCREEN_TOP*
G04 Layer:  MANUFACTURING/AUTOSILK_TOP*
G04 *
G04 Offset:    (0.000 0.000)*
G04 Mirror:    No*
G04 Mode:      Positive*
G04 Rotation:  0*
G04 FullContactRelief:  No*
G04 UndefLineWidth:     5.000*
G04 ================== end FILE IDENTIFICATION RECORD ====================*
%FSLAX25Y25*MOIN*%
%IR0*IPPOS*OFA0.00000B0.00000*MIA0B0*SFA1.00000B1.00000*%
%ADD10C,.005*%
%ADD11C,.00315*%
%ADD12C,.001969*%
%ADD13C,.007874*%
G75*
%LPD*%
G75*
G36*
G01X63549Y88976D02*
G03I-557J0D01*
G37*
G54D10*
G01X-1230Y15900D02*
X-1270D01*
Y29150D01*
X6350D01*
Y15900D01*
X-1270D01*
G01X8700Y29150D02*
X16250D01*
Y15940D01*
X8700D01*
Y29150D01*
G01X2040Y46030D02*
X9660D01*
Y32820D01*
X2040D01*
Y46030D01*
G01X15890Y46070D02*
X23390D01*
Y32740D01*
X15890D01*
Y46070D01*
G01X5256Y22028D02*
Y22972D01*
G01X-256Y22028D02*
Y22972D01*
G01Y22028D02*
Y22972D01*
G01X5256Y22028D02*
Y22972D01*
G01X3150Y39842D02*
Y38898D01*
G01X8661Y39842D02*
Y38898D01*
G01Y39842D02*
Y38898D01*
G01X3150Y39842D02*
Y38898D01*
G01X9794Y22962D02*
Y22018D01*
G01X15306Y22962D02*
Y22018D01*
G01Y22962D02*
Y22018D01*
G01X9794Y22962D02*
Y22018D01*
G01X8560Y82490D02*
X-4730D01*
Y74870D01*
X8560D01*
Y82490D01*
G01X2441Y81496D02*
X1496D01*
G01X2441Y75984D02*
X1496D01*
G01X2441D02*
X1496D01*
G01X2441Y81496D02*
X1496D01*
G01X18760Y29230D02*
X26140D01*
Y15900D01*
X18760D01*
Y29230D01*
G01X16929Y39842D02*
Y38898D01*
G01X22441Y39842D02*
Y38898D01*
G01Y39842D02*
Y38898D01*
G01X16929Y39842D02*
Y38898D01*
G01X19744Y22972D02*
Y22028D01*
G01X25256Y22972D02*
Y22028D01*
G01Y22972D02*
Y22028D01*
G01X19744Y22972D02*
Y22028D01*
G01X24528Y105315D02*
Y115158D01*
X64528D01*
Y105315D01*
X24528D01*
G01D02*
Y115158D01*
X64528D01*
Y105315D01*
X24528D01*
G01X59000Y83850D02*
X74680D01*
Y77500D01*
X59000D01*
Y83850D01*
G01X47450Y101170D02*
X54950D01*
Y87840D01*
X47450D01*
Y101170D01*
G01X53937Y94016D02*
Y94961D01*
G01X48425Y94016D02*
Y94961D01*
G01Y94016D02*
Y94961D01*
G01X53937Y94016D02*
Y94961D01*
G01X65354Y78347D02*
X68504D01*
G01X65354Y83071D02*
X68504D01*
G01X65354D02*
X68504D01*
G01X67747Y78347D02*
X68504D01*
G01X96010Y92160D02*
X134000D01*
Y78040D01*
X96010D01*
Y92160D01*
G01X77280Y110220D02*
X84020D01*
Y94540D01*
X77280D01*
Y110220D01*
G01X83601Y91624D02*
X91136D01*
Y78301D01*
X83601D01*
Y91624D01*
G01X90102Y84613D02*
Y85557D01*
G01X84590Y84613D02*
Y85557D01*
G01Y84613D02*
Y85557D01*
G01X90102Y84613D02*
Y85557D01*
G01X78218Y103855D02*
Y100705D01*
G01X82942Y103855D02*
Y100705D01*
G01Y103855D02*
Y100705D01*
G01X78218Y103855D02*
Y100705D01*
G01X5744Y-23511D02*
Y-21011D01*
X6278D01*
X6491Y-21136D01*
X6651Y-21303D01*
X6784Y-21553D01*
X6891Y-21844D01*
X6918Y-22261D01*
X6891Y-22678D01*
X6784Y-22969D01*
X6651Y-23219D01*
X6491Y-23386D01*
X6278Y-23511D01*
X5744D01*
G01X8131Y-22386D02*
X8984D01*
X8904Y-22094D01*
X8771Y-21928D01*
X8584Y-21844D01*
X8398Y-21886D01*
X8238Y-22011D01*
X8131Y-22303D01*
X8078Y-22553D01*
Y-22803D01*
X8131Y-23053D01*
X8264Y-23303D01*
X8424Y-23469D01*
X8611Y-23511D01*
X8798Y-23428D01*
X8984Y-23178D01*
G01X10331Y-23219D02*
X10464Y-23386D01*
X10651Y-23511D01*
X10811D01*
X10971Y-23428D01*
X11078Y-23303D01*
X11131Y-23136D01*
X11104Y-22886D01*
X10998Y-22761D01*
X10518Y-22511D01*
X10411Y-22219D01*
X10464Y-22011D01*
X10571Y-21886D01*
X10731Y-21844D01*
X10891Y-21886D01*
X11051Y-22011D01*
G01X12931Y-21844D02*
Y-23511D01*
G01Y-21178D02*
X12878Y-21136D01*
Y-21053D01*
X12931Y-21011D01*
X12984Y-21053D01*
Y-21136D01*
X12931Y-21178D01*
G01X14758Y-24136D02*
X14944Y-24303D01*
X15158Y-24344D01*
X15344Y-24303D01*
X15504Y-24094D01*
X15611Y-23803D01*
Y-21844D01*
G01Y-22178D02*
X15504Y-22011D01*
X15344Y-21886D01*
X15158Y-21844D01*
X14944Y-21928D01*
X14811Y-22094D01*
X14704Y-22386D01*
X14651Y-22678D01*
X14678Y-22928D01*
X14784Y-23219D01*
X14944Y-23428D01*
X15158Y-23511D01*
X15318Y-23469D01*
X15504Y-23303D01*
X15611Y-23136D01*
G01X16878Y-23511D02*
Y-21844D01*
G01Y-22261D02*
X16984Y-22053D01*
X17144Y-21886D01*
X17358Y-21844D01*
X17544Y-21886D01*
X17704Y-22053D01*
X17784Y-22344D01*
Y-23511D01*
G01X19131Y-22386D02*
X19984D01*
X19904Y-22094D01*
X19771Y-21928D01*
X19584Y-21844D01*
X19398Y-21886D01*
X19238Y-22011D01*
X19131Y-22303D01*
X19078Y-22553D01*
Y-22803D01*
X19131Y-23053D01*
X19264Y-23303D01*
X19424Y-23469D01*
X19611Y-23511D01*
X19798Y-23428D01*
X19984Y-23178D01*
G01X22211Y-21011D02*
Y-23511D01*
G01Y-23136D02*
X22104Y-23344D01*
X21944Y-23469D01*
X21758Y-23511D01*
X21544Y-23428D01*
X21384Y-23219D01*
X21278Y-22969D01*
X21251Y-22678D01*
X21278Y-22386D01*
X21384Y-22136D01*
X21544Y-21928D01*
X21758Y-21844D01*
X21944Y-21886D01*
X22078Y-21969D01*
X22211Y-22136D01*
G01X25651Y-23511D02*
Y-21011D01*
G01Y-22261D02*
X25784Y-22011D01*
X25944Y-21886D01*
X26104Y-21844D01*
X26344Y-21928D01*
X26504Y-22094D01*
X26611Y-22386D01*
Y-22719D01*
X26558Y-23053D01*
X26451Y-23303D01*
X26264Y-23469D01*
X26104Y-23511D01*
X25944Y-23469D01*
X25784Y-23344D01*
X25651Y-23136D01*
G01X27771Y-24261D02*
X27931Y-24344D01*
X28144Y-24261D01*
X28278Y-24094D01*
X28384Y-23886D01*
X28544Y-23219D01*
X28891Y-21844D01*
G01X28038D02*
X28544Y-23219D01*
G01X32731Y-21011D02*
Y-23511D01*
G01X32118Y-21011D02*
X33344D01*
G01X34531Y-22386D02*
X35384D01*
X35304Y-22094D01*
X35171Y-21928D01*
X34984Y-21844D01*
X34798Y-21886D01*
X34638Y-22011D01*
X34531Y-22303D01*
X34478Y-22553D01*
Y-22803D01*
X34531Y-23053D01*
X34664Y-23303D01*
X34824Y-23469D01*
X35011Y-23511D01*
X35198Y-23428D01*
X35384Y-23178D01*
G01X37611Y-23511D02*
Y-21844D01*
G01Y-22136D02*
X37504Y-21969D01*
X37344Y-21886D01*
X37158Y-21844D01*
X36971Y-21928D01*
X36811Y-22094D01*
X36704Y-22344D01*
X36651Y-22678D01*
X36704Y-23011D01*
X36811Y-23261D01*
X36971Y-23428D01*
X37158Y-23511D01*
X37344Y-23469D01*
X37504Y-23344D01*
X37611Y-23178D01*
G01X38531Y-23511D02*
Y-21844D01*
G01Y-22303D02*
X38611Y-22094D01*
X38744Y-21928D01*
X38931Y-21844D01*
X39118Y-21928D01*
X39251Y-22094D01*
X39331Y-22303D01*
Y-23511D01*
G01Y-22303D02*
X39411Y-22094D01*
X39544Y-21928D01*
X39731Y-21844D01*
X39918Y-21928D01*
X40051Y-22094D01*
X40131Y-22344D01*
Y-23511D01*
G01X40971D02*
X42091Y-21011D01*
G01X40971D02*
X42091Y-23511D01*
G01X13983Y-15595D02*
Y-18695D01*
G01X13101Y-15595D02*
X14865D01*
G01X16546Y-18695D02*
Y-16628D01*
G01Y-17042D02*
X16738Y-16835D01*
X16930Y-16680D01*
X17198Y-16628D01*
X17390Y-16680D01*
X17620Y-16835D01*
G01X20873Y-18695D02*
Y-16628D01*
G01Y-16990D02*
X20720Y-16783D01*
X20490Y-16680D01*
X20221Y-16628D01*
X19953Y-16732D01*
X19723Y-16938D01*
X19570Y-17248D01*
X19493Y-17662D01*
X19570Y-18075D01*
X19723Y-18385D01*
X19953Y-18592D01*
X20221Y-18695D01*
X20490Y-18643D01*
X20720Y-18488D01*
X20873Y-18282D01*
G01X23896Y-16887D02*
X23628Y-16680D01*
X23398Y-16628D01*
X23091Y-16732D01*
X22861Y-16938D01*
X22708Y-17300D01*
X22670Y-17662D01*
X22708Y-18023D01*
X22861Y-18333D01*
X23091Y-18592D01*
X23398Y-18695D01*
X23666Y-18592D01*
X23896Y-18385D01*
G01X25731Y-18695D02*
Y-15595D01*
G01X26958Y-16628D02*
X25731Y-17817D01*
G01X26230Y-17352D02*
X27035Y-18695D01*
G01X29483Y-16628D02*
Y-18695D01*
G01Y-15802D02*
X29406Y-15750D01*
Y-15647D01*
X29483Y-15595D01*
X29560Y-15647D01*
Y-15750D01*
X29483Y-15802D01*
G01X32583Y-15595D02*
Y-18695D01*
G01X32046Y-16628D02*
X33120D01*
G01X-917Y13843D02*
X-1297Y14093D01*
X-1740Y14260D01*
X-2247D01*
X-2817Y14010D01*
X-3260Y13593D01*
X-3577Y13093D01*
X-3830Y12260D01*
X-3893Y11510D01*
X-3767Y10760D01*
X-3577Y10260D01*
X-3197Y9760D01*
X-2753Y9427D01*
X-2310Y9260D01*
X-1867D01*
X-1423Y9427D01*
X-1043Y9677D01*
X-727Y10010D01*
G01X2790Y9260D02*
Y14260D01*
X2030Y13260D01*
G01Y9260D02*
X3550D01*
G01X10316Y13581D02*
X9936Y13831D01*
X9493Y13998D01*
X8986D01*
X8416Y13748D01*
X7973Y13331D01*
X7656Y12831D01*
X7403Y11998D01*
X7340Y11248D01*
X7466Y10498D01*
X7656Y9998D01*
X8036Y9498D01*
X8480Y9165D01*
X8923Y8998D01*
X9366D01*
X9810Y9165D01*
X10190Y9415D01*
X10506Y9748D01*
G01X12820Y13165D02*
X13200Y13665D01*
X13643Y13915D01*
X14150Y13998D01*
X14783Y13831D01*
X15226Y13415D01*
X15353Y12915D01*
X15290Y12414D01*
X15036Y11998D01*
X13770Y11165D01*
X13200Y10581D01*
X12820Y9748D01*
X12693Y8998D01*
X15353D01*
G01X120Y47244D02*
Y52244D01*
X1704D01*
X2210Y51994D01*
X2527Y51661D01*
X2654Y50994D01*
X2527Y50327D01*
X2147Y49911D01*
X1704Y49661D01*
X120D01*
G01X1704D02*
X2654Y47244D01*
G01X5094Y47994D02*
X5474Y47577D01*
X5917Y47327D01*
X6487Y47244D01*
X7057Y47411D01*
X7500Y47744D01*
X7817Y48327D01*
X7880Y48994D01*
X7754Y49661D01*
X7437Y50077D01*
X6994Y50411D01*
X6550Y50494D01*
X6107Y50411D01*
X5537Y50077D01*
X5727Y52244D01*
X7437D01*
G01X14303Y47250D02*
Y52250D01*
X15887D01*
X16393Y52000D01*
X16710Y51667D01*
X16837Y51000D01*
X16710Y50333D01*
X16330Y49917D01*
X15887Y49667D01*
X14303D01*
G01X15887D02*
X16837Y47250D01*
G01X19467Y49333D02*
X19910Y49917D01*
X20290Y50250D01*
X20797Y50417D01*
X21240Y50250D01*
X21557Y49917D01*
X21810Y49417D01*
X21873Y48833D01*
X21810Y48333D01*
X21557Y47833D01*
X21177Y47417D01*
X20733Y47250D01*
X20227Y47417D01*
X19783Y47916D01*
X19530Y48667D01*
X19467Y49500D01*
X19593Y50583D01*
X19783Y51167D01*
X20100Y51750D01*
X20543Y52167D01*
X20987Y52250D01*
X21430Y52083D01*
X21747Y51667D01*
G01X-5930Y71779D02*
Y66779D01*
G01X-7387Y71779D02*
X-4474D01*
G01X-2098Y66779D02*
Y71779D01*
X-579D01*
X-72Y71529D01*
X308Y70946D01*
X434Y70279D01*
X308Y69612D01*
X-9Y69112D01*
X-579Y68862D01*
X-2098D01*
G01X4266Y66779D02*
Y71779D01*
X3506Y70779D01*
G01Y66779D02*
X5026D01*
G01X-2157Y56912D02*
X5717D01*
Y64786D01*
X-2157D01*
Y56912D01*
G01D02*
X5717D01*
Y64786D01*
X-2157D01*
Y56912D01*
G01X9916Y71546D02*
Y66546D01*
G01X8460Y71546D02*
X11373D01*
G01X13749Y66546D02*
Y71546D01*
X15268D01*
X15775Y71296D01*
X16155Y70713D01*
X16281Y70046D01*
X16155Y69379D01*
X15838Y68879D01*
X15268Y68629D01*
X13749D01*
G01X18910Y70713D02*
X19290Y71213D01*
X19734Y71463D01*
X20240Y71546D01*
X20873Y71379D01*
X21316Y70963D01*
X21443Y70463D01*
X21380Y69962D01*
X21126Y69546D01*
X19860Y68713D01*
X19290Y68129D01*
X18910Y67296D01*
X18784Y66546D01*
X21443D01*
G01X15632Y57300D02*
X23506D01*
Y65174D01*
X15632D01*
Y57300D01*
G01D02*
X23506D01*
Y65174D01*
X22085D01*
G01X22016D02*
X15632D01*
Y57300D01*
G01X-5785Y82677D02*
Y87677D01*
X-4202D01*
X-3695Y87427D01*
X-3378Y87094D01*
X-3252Y86427D01*
X-3378Y85760D01*
X-3758Y85344D01*
X-4202Y85094D01*
X-5785D01*
G01X-4202D02*
X-3252Y82677D01*
G01X455D02*
X581Y83760D01*
X772Y84677D01*
X1025Y85510D01*
X1342Y86427D01*
X1848Y87677D01*
X-685D01*
G01X33704Y59830D02*
X8648Y84885D01*
X25352Y101588D01*
X50407Y76533D01*
X33704Y59830D01*
G01X23666Y69867D02*
X13103Y80430D01*
G01X11711Y81822D02*
X8648Y84885D01*
X25352Y101588D01*
X28414Y98526D01*
G01X19883Y8940D02*
Y13940D01*
X21467D01*
X21973Y13690D01*
X22290Y13357D01*
X22417Y12690D01*
X22290Y12023D01*
X21910Y11607D01*
X21467Y11357D01*
X19883D01*
G01X21467D02*
X22417Y8940D01*
G01X26250D02*
X26693Y9023D01*
X27200Y9273D01*
X27517Y9690D01*
X27643Y10273D01*
X27517Y10857D01*
X27137Y11357D01*
X26567Y11607D01*
X25933D01*
X25553Y11773D01*
X25237Y12190D01*
X25110Y12773D01*
X25300Y13357D01*
X25743Y13773D01*
X26250Y13940D01*
X26757Y13773D01*
X27200Y13357D01*
X27390Y12773D01*
X27263Y12190D01*
X26947Y11773D01*
X26567Y11607D01*
X25933D01*
X25363Y11357D01*
X24983Y10857D01*
X24857Y10273D01*
X24983Y9690D01*
X25300Y9273D01*
X25807Y9023D01*
X26250Y8940D01*
G01X26900Y57500D02*
Y52500D01*
G01X25443Y57500D02*
X28356D01*
G01X30732Y52500D02*
Y57500D01*
X32251D01*
X32758Y57250D01*
X33138Y56667D01*
X33264Y56000D01*
X33138Y55333D01*
X32821Y54833D01*
X32251Y54583D01*
X30732D01*
G01X37856Y52500D02*
Y57500D01*
X35513Y53917D01*
X38680D01*
G01X27673Y43318D02*
X35547D01*
Y51192D01*
X27673D01*
Y43318D01*
G01D02*
X35547D01*
Y51192D01*
X27673D01*
Y43318D01*
G01X33704Y59830D02*
X30641Y62892D01*
G01X29249Y64284D02*
X24936Y68597D01*
G01X47344Y79595D02*
X50407Y76533D01*
X33704Y59830D01*
G01X41183Y104073D02*
X40803Y104323D01*
X40360Y104490D01*
X39853D01*
X39283Y104240D01*
X38840Y103823D01*
X38523Y103323D01*
X38270Y102490D01*
X38207Y101740D01*
X38333Y100990D01*
X38523Y100490D01*
X38903Y99990D01*
X39347Y99657D01*
X39790Y99490D01*
X40233D01*
X40677Y99657D01*
X41057Y99907D01*
X41373Y100240D01*
G01X43497Y100490D02*
X43877Y99907D01*
X44383Y99573D01*
X44953Y99490D01*
X45460Y99573D01*
X45967Y99990D01*
X46283Y100490D01*
X46347Y100990D01*
X46220Y101573D01*
X45777Y101990D01*
X45333Y102157D01*
X44763D01*
G01X45333D02*
X45713Y102407D01*
X46030Y102823D01*
X46157Y103323D01*
X46030Y103823D01*
X45713Y104240D01*
X45143Y104490D01*
X44573Y104407D01*
X44003Y104073D01*
G01X35795Y93774D02*
X36301Y93357D01*
X36871Y93107D01*
X37378D01*
X37885Y93357D01*
X38265Y93774D01*
X38455Y94357D01*
X38328Y94940D01*
X38011Y95441D01*
X37441Y95774D01*
X36681Y95941D01*
X36238Y96274D01*
X36048Y96857D01*
X36175Y97441D01*
X36491Y97857D01*
X36935Y98107D01*
X37378D01*
X37821Y97941D01*
X38201Y97524D01*
G01X41021Y97274D02*
X41401Y97774D01*
X41845Y98024D01*
X42351Y98107D01*
X42985Y97941D01*
X43428Y97524D01*
X43555Y97024D01*
X43491Y96524D01*
X43238Y96107D01*
X41971Y95274D01*
X41401Y94691D01*
X41021Y93857D01*
X40895Y93107D01*
X43555D01*
G01X29806Y97133D02*
X45952Y80987D01*
G01X28017Y119757D02*
X27637Y120007D01*
X27194Y120174D01*
X26687D01*
X26117Y119924D01*
X25674Y119507D01*
X25357Y119007D01*
X25104Y118174D01*
X25041Y117424D01*
X25167Y116674D01*
X25357Y116174D01*
X25737Y115674D01*
X26181Y115341D01*
X26624Y115174D01*
X27067D01*
X27511Y115341D01*
X27891Y115591D01*
X28207Y115924D01*
G01X31724Y115174D02*
X31217Y115257D01*
X30774Y115591D01*
X30394Y116091D01*
X30141Y116674D01*
X30014Y117341D01*
Y118007D01*
X30141Y118674D01*
X30394Y119257D01*
X30774Y119757D01*
X31217Y120091D01*
X31724Y120174D01*
X32231Y120091D01*
X32674Y119757D01*
X33054Y119257D01*
X33307Y118674D01*
X33434Y118007D01*
Y117341D01*
X33307Y116674D01*
X33054Y116091D01*
X32674Y115591D01*
X32231Y115257D01*
X31724Y115174D01*
G01X35367D02*
Y120174D01*
X38281Y115174D01*
Y120174D01*
G01X40721Y119341D02*
X41101Y119841D01*
X41544Y120091D01*
X42051Y120174D01*
X42684Y120007D01*
X43127Y119591D01*
X43254Y119091D01*
X43191Y118590D01*
X42937Y118174D01*
X41671Y117341D01*
X41101Y116757D01*
X40721Y115924D01*
X40594Y115174D01*
X43254D01*
G01X59400Y75000D02*
Y70000D01*
G01X57943Y75000D02*
X60856D01*
G01X63232Y70000D02*
Y75000D01*
X64751D01*
X65258Y74750D01*
X65638Y74167D01*
X65764Y73500D01*
X65638Y72833D01*
X65321Y72333D01*
X64751Y72083D01*
X63232D01*
G01X68203Y71000D02*
X68583Y70417D01*
X69090Y70083D01*
X69660Y70000D01*
X70166Y70083D01*
X70673Y70500D01*
X70989Y71000D01*
X71053Y71500D01*
X70926Y72083D01*
X70483Y72500D01*
X70040Y72667D01*
X69470D01*
G01X70040D02*
X70420Y72917D01*
X70736Y73333D01*
X70863Y73833D01*
X70736Y74333D01*
X70420Y74750D01*
X69850Y75000D01*
X69280Y74917D01*
X68710Y74583D01*
G01X49212Y66929D02*
X57087D01*
Y74803D01*
X49212D01*
Y66929D01*
G01D02*
X57087D01*
Y74803D01*
X49212D01*
Y66929D01*
G01X50247Y86474D02*
Y81474D01*
X52781D01*
G01X55411Y85641D02*
X55791Y86141D01*
X56234Y86391D01*
X56741Y86474D01*
X57374Y86307D01*
X57817Y85891D01*
X57944Y85391D01*
X57881Y84890D01*
X57627Y84474D01*
X56361Y83641D01*
X55791Y83057D01*
X55411Y82224D01*
X55284Y81474D01*
X57944D01*
G01X66900Y107448D02*
Y103865D01*
X67153Y103114D01*
X67660Y102615D01*
X68293Y102448D01*
X68926Y102615D01*
X69433Y103114D01*
X69686Y103865D01*
Y107448D01*
G01X72190Y106615D02*
X72570Y107115D01*
X73013Y107365D01*
X73520Y107448D01*
X74153Y107281D01*
X74596Y106865D01*
X74723Y106365D01*
X74660Y105864D01*
X74406Y105448D01*
X73140Y104615D01*
X72570Y104031D01*
X72190Y103198D01*
X72063Y102448D01*
X74723D01*
G01X88843Y97083D02*
X88463Y97333D01*
X88020Y97500D01*
X87513D01*
X86943Y97250D01*
X86500Y96833D01*
X86183Y96333D01*
X85930Y95500D01*
X85867Y94750D01*
X85993Y94000D01*
X86183Y93500D01*
X86563Y93000D01*
X87007Y92667D01*
X87450Y92500D01*
X87893D01*
X88337Y92667D01*
X88717Y92917D01*
X89033Y93250D01*
G01X93310Y92500D02*
Y97500D01*
X90967Y93917D01*
X94133D01*
G01X96457Y93957D02*
Y101043D01*
X123228D01*
Y93957D01*
X96457D01*
G01D02*
Y101043D01*
X123228D01*
Y93957D01*
X96457D01*
G01X85611Y110125D02*
Y105125D01*
X88144D01*
G01X91978D02*
Y110125D01*
X91218Y109125D01*
G01Y105125D02*
X92738D01*
G01X99251Y106396D02*
X98871Y106646D01*
X98428Y106813D01*
X97921D01*
X97351Y106563D01*
X96908Y106146D01*
X96591Y105646D01*
X96338Y104813D01*
X96275Y104063D01*
X96401Y103313D01*
X96591Y102813D01*
X96971Y102313D01*
X97415Y101980D01*
X97858Y101813D01*
X98301D01*
X98745Y101980D01*
X99125Y102230D01*
X99441Y102563D01*
G01X102958Y101813D02*
X102451Y101896D01*
X102008Y102230D01*
X101628Y102730D01*
X101375Y103313D01*
X101248Y103980D01*
Y104646D01*
X101375Y105313D01*
X101628Y105896D01*
X102008Y106396D01*
X102451Y106730D01*
X102958Y106813D01*
X103465Y106730D01*
X103908Y106396D01*
X104288Y105896D01*
X104541Y105313D01*
X104668Y104646D01*
Y103980D01*
X104541Y103313D01*
X104288Y102730D01*
X103908Y102230D01*
X103465Y101896D01*
X102958Y101813D01*
G01X106601D02*
Y106813D01*
X109515Y101813D01*
Y106813D01*
G01X111765Y102813D02*
X112145Y102230D01*
X112651Y101896D01*
X113221Y101813D01*
X113728Y101896D01*
X114235Y102313D01*
X114551Y102813D01*
X114615Y103313D01*
X114488Y103896D01*
X114045Y104313D01*
X113601Y104480D01*
X113031D01*
G01X113601D02*
X113981Y104730D01*
X114298Y105146D01*
X114425Y105646D01*
X114298Y106146D01*
X113981Y106563D01*
X113411Y106813D01*
X112841Y106730D01*
X112271Y106396D01*
G01X123563Y77340D02*
X123183Y77590D01*
X122740Y77757D01*
X122233D01*
X121663Y77507D01*
X121220Y77090D01*
X120903Y76590D01*
X120650Y75757D01*
X120587Y75007D01*
X120713Y74257D01*
X120903Y73757D01*
X121283Y73257D01*
X121727Y72924D01*
X122170Y72757D01*
X122613D01*
X123057Y72924D01*
X123437Y73174D01*
X123753Y73507D01*
G01X127270Y72757D02*
X126763Y72840D01*
X126320Y73174D01*
X125940Y73674D01*
X125687Y74257D01*
X125560Y74924D01*
Y75590D01*
X125687Y76257D01*
X125940Y76840D01*
X126320Y77340D01*
X126763Y77674D01*
X127270Y77757D01*
X127777Y77674D01*
X128220Y77340D01*
X128600Y76840D01*
X128853Y76257D01*
X128980Y75590D01*
Y74924D01*
X128853Y74257D01*
X128600Y73674D01*
X128220Y73174D01*
X127777Y72840D01*
X127270Y72757D01*
G01X130913D02*
Y77757D01*
X133827Y72757D01*
Y77757D01*
G01X137470Y72757D02*
Y77757D01*
X136710Y76757D01*
G01Y72757D02*
X138230D01*
G54D11*
G01X63780Y89370D02*
X74016D01*
Y99606D01*
X63780D01*
Y89370D01*
G01D02*
X64252D01*
G01X65669D02*
X66220D01*
G01X67638D02*
X68189D01*
G01X69606D02*
X70157D01*
G01X71575D02*
X72126D01*
G01X73543D02*
X74016D01*
Y99606D01*
X73543D01*
G01X72126D02*
X71575D01*
G01X70157D02*
X69606D01*
G01X68189D02*
X67638D01*
G01X66220D02*
X65669D01*
G01X64252D02*
X63780D01*
Y89370D01*
G54D12*
G01X61811Y101575D02*
X74803D01*
X75197Y101181D01*
Y87795D01*
X74803Y87402D01*
X61811D01*
Y101575D01*
G01D02*
X74803D01*
X75197Y101181D01*
Y89375D01*
G01X75181Y87780D02*
X74803Y87402D01*
X61811D01*
Y97166D01*
G01Y99755D02*
Y101575D01*
G54D13*
G01X22362Y110236D02*
G03I-394J0D01*
G01D02*
G03I-394J0D01*
M02*
